<?xml version="1.0" encoding="utf-8"?>
<!-- Generator: Adobe Illustrator 23.0.3, SVG Export Plug-In . SVG Version: 6.00 Build 0)  -->
<svg version="1.1" id="Layer_1" xmlns="http://www.w3.org/2000/svg" xmlns:xlink="http://www.w3.org/1999/xlink" x="0px" y="0px"
	 viewBox="0 0 513 150" style="enable-background:new 0 0 513 150;" xml:space="preserve">
<path d="M128.5,118.1c0-7.8,0.5-13.9,1.4-18.2c0.9-4.3,2.9-9.4,6-15.1v-0.4H99.5v0.4c3.3,5.6,5.6,10.5,6.8,14.7
	c1.2,4.2,1.8,9.6,1.8,16.2c0,9.5-3.1,16.9-9.3,21.9c-6.2,5.1-14.5,7.6-24.9,7.6c-11.2,0-20.4-3-27.9-9.1c-7.4-6.1-12.8-14-16-23.7
	c-3.2-9.7-4.8-21.1-4.8-34.1c0-19.9,4.3-36.1,12.8-48.6s21-18.7,37.4-18.7c9.8,0,18.6,2.8,26.3,8.3c7.7,5.5,16.1,14.8,25,27.8
	l1.7-0.6l-3.7-30.3C106.7,10.4,90.9,7.4,77,7.4c-22.9,0-41.2,6.7-54.9,20.2C8.4,41,1.6,57.9,1.6,78.2c0,20.2,6.7,37,20,50.5
	C34.8,142.2,52.3,149,73.8,149c4.8,0,9.5-0.4,14-1.1c4.5-0.7,8.3-1.6,11.4-2.5c3.1-0.9,6.4-2.3,9.8-4.1c3.5-1.8,6-3.2,7.6-4.2
	c1.6-1,3.8-2.4,6.7-4.4c2.8-1.9,4.5-3.1,5-3.4V118.1z"/>
<path d="M175.1,146.2v-0.4c-2.7-7.4-4.1-19.4-4.1-35.9V80.2c4.1-5.6,8.1-8.4,11.9-8.4c2.1,0,5,0.6,8.6,1.8c3.7,1.2,6.3,2.4,7.9,3.8
	h0.7l0.4-22.7c-3.7,0-7.7,1.4-11.8,4.2c-4.2,2.8-7.2,5.2-9,7.3c-1.9,2.1-4.8,5.5-8.7,10.2h-0.7V53.8l-26.2,9.8v0.4
	c5.6,6.3,8.4,14.4,8.4,24.2v21.9c0,15.4-1.4,27.3-4.3,35.7v0.4H175.1z"/>
<path d="M227.3,135.8c-2.4-2.1-3.5-5-3.5-8.7c0-10.2,9.6-17.4,28.8-21.7v28.2c-3.8,3.6-8.9,5.4-15.2,5.4
	C233,139,229.7,137.9,227.3,135.8z M287.9,134.9l-0.4-0.4c-3,2.4-6,3.5-9.1,3.5c-4.8,0-7.2-2.7-7.2-8.2v-53c0-6.4-1.9-11.7-5.8-15.9
	c-3.8-4.1-10-6.2-18.6-6.2c-16.1,0-28.4,6.1-37,18.4l0.9,1.1c6.8-5.6,15.1-8.4,24.7-8.4c6.2,0,10.6,1.4,13.2,4.1
	c2.6,2.7,3.9,6.7,3.9,11.9v20.3c-7.4,1.1-14.4,2.8-20.9,5.1c-6.5,2.3-12.4,5.7-17.6,10.3c-5.2,4.6-7.8,9.8-7.8,15.6
	c0,5.1,1.9,9,5.6,11.7c3.7,2.7,8.5,4.1,14.3,4.1c10.7,0,19.6-4.1,26.8-12.3c1.6,7.8,6.8,11.7,15.4,11.7
	C276.8,148.4,283.3,143.9,287.9,134.9L287.9,134.9z"/>
<path d="M314,126.6c-4.4-6.6-6.6-15.6-6.6-27c0-12.3,2.4-22.2,7.2-29.9C319.5,62,326,58.1,334,58.1c11,0,18.1,6.9,21.2,20.6v47.8
	c-5.7,6.7-13,10-21.9,10C324.8,136.5,318.4,133.2,314,126.6z M355.9,130.2v18.2l26.4-5.9v-0.4c-3.3-2.8-5.6-6.5-6.8-10.9
	c-1.2-4.4-1.8-12.6-1.8-24.6V1.6l-26.9,9.8v0.4c5.6,6.3,8.4,14.4,8.4,24.2v22.1c-5.7-2.2-12-3.3-18.8-3.3
	c-15.2,0-27.1,4.9-35.7,14.8c-8.5,9.8-12.8,22-12.8,36.3c0,12.5,3.3,22.8,9.8,30.9c6.5,8.1,15.1,12.2,25.9,12.2
	c7.2,0,13.5-1.8,19-5.4c5.5-3.6,9.8-8.1,12.7-13.4H355.9z"/>
<path d="M406.1,12.6c-3.1,0-5.7,1.1-7.9,3.3c-2.2,2.2-3.3,4.9-3.3,8c0,3.1,1.1,5.7,3.3,7.9c2.2,2.2,4.8,3.3,7.9,3.3
	c3.1,0,5.7-1.1,7.9-3.3c2.2-2.2,3.3-4.8,3.3-7.9c0-3.1-1.1-5.8-3.3-8C411.9,13.7,409.2,12.6,406.1,12.6z M393.5,146.2h26.9v-0.4
	c-1.7-4.7-2.9-9.6-3.3-14.6c-0.5-5-0.7-12.1-0.7-21.3V53.8l-26.9,9.8V65c5.6,6.3,8.4,14.3,8.4,24v21.2c0,11.8-1.4,23.7-4.3,35.7
	V146.2z"/>
<path d="M451.5,135.8c-2.4-2.1-3.5-5-3.5-8.7c0-10.2,9.6-17.4,28.8-21.7v28.2c-3.8,3.6-8.9,5.4-15.2,5.4
	C457.2,139,453.8,137.9,451.5,135.8z M512.1,134.9l-0.4-0.4c-3,2.4-6,3.5-9.1,3.5c-4.8,0-7.2-2.7-7.2-8.2v-53
	c0-6.4-1.9-11.7-5.8-15.9c-3.8-4.1-10-6.2-18.6-6.2c-16.1,0-28.4,6.1-37,18.4l0.9,1.1c6.8-5.6,15.1-8.4,24.7-8.4
	c6.2,0,10.6,1.4,13.2,4.1c2.6,2.7,3.9,6.7,3.9,11.9v20.3c-7.4,1.1-14.4,2.8-20.9,5.1c-6.5,2.3-12.4,5.7-17.6,10.3
	c-5.2,4.6-7.8,9.8-7.8,15.6c0,5.1,1.9,9,5.6,11.7c3.7,2.7,8.5,4.1,14.3,4.1c10.7,0,19.6-4.1,26.8-12.3c1.6,7.8,6.8,11.7,15.4,11.7
	C501,148.4,507.5,143.9,512.1,134.9L512.1,134.9z"/>
</svg>
